<?xml version="1.0" standalone="no"?>
<!DOCTYPE svg PUBLIC "-//W3C//DTD SVG 20010904//EN"
 "http://www.w3.org/TR/2001/REC-SVG-20010904/DTD/svg10.dtd">
<svg version="1.0" xmlns="http://www.w3.org/2000/svg"
 width="800.000000pt" height="800.000000pt" viewBox="0 0 800.000000 800.000000"
 preserveAspectRatio="xMidYMid meet">
<metadata>
Created by potrace 1.11, written by Peter Selinger 2001-2013
</metadata>
<g transform="translate(0.000000,800.000000) scale(0.100000,-0.100000)"
fill="#000000" stroke="none">
<path d="M0 4000 l0 -4000 4000 0 4000 0 0 3024 0 3024 -37 29 c-21 16 -57 35
-80 43 -24 7 -43 18 -43 24 0 6 -10 16 -23 22 -60 29 -213 110 -217 115 -3 3
-21 14 -40 25 -19 10 -37 21 -40 24 -10 10 -45 31 -62 36 -10 4 -18 13 -18 20
0 8 -6 14 -13 14 -18 0 -67 24 -67 33 0 4 -6 7 -13 7 -7 0 -35 14 -63 31 -27
18 -68 38 -91 46 -24 8 -43 21 -43 29 0 9 -11 14 -30 14 -17 0 -30 5 -30 13 0
6 -28 25 -62 41 -34 16 -67 34 -74 40 -6 6 -22 18 -34 26 -12 8 -28 21 -36 28
-7 6 -17 12 -23 12 -11 0 -51 20 -61 30 -3 3 -23 14 -45 26 -67 35 -110 59
-115 64 -3 3 -22 14 -42 24 -21 11 -38 22 -38 26 0 4 -8 10 -17 14 -10 3 -25
10 -33 15 -8 5 -26 12 -40 15 -14 3 -37 16 -51 29 -14 14 -42 30 -62 38 -20 7
-37 19 -37 26 0 7 -7 13 -15 13 -15 0 -55 19 -65 31 -3 4 -15 9 -27 13 -13 4
-23 14 -23 22 0 8 -7 14 -17 14 -23 0 -127 50 -136 66 -4 8 -15 14 -22 14 -8
0 -15 5 -15 10 0 6 -6 10 -14 10 -7 0 -19 7 -26 15 -7 8 -19 15 -27 15 -8 0
-30 12 -50 27 -19 15 -43 27 -53 28 -10 1 -25 8 -34 16 -34 31 -45 38 -104 65
-34 16 -62 35 -62 42 0 6 -9 12 -19 12 -20 0 -76 27 -98 47 -7 6 -26 17 -43
25 -16 7 -30 16 -30 20 0 5 -6 8 -14 8 -7 0 -19 7 -26 15 -7 8 -20 15 -28 15
-9 0 -27 11 -41 24 -15 13 -50 31 -78 42 -29 10 -53 23 -53 29 0 6 -29 24 -65
40 -36 17 -65 36 -65 43 0 6 -6 12 -14 12 -7 0 -42 16 -77 35 -35 20 -72 38
-81 42 -10 3 -18 11 -18 18 0 7 -15 20 -33 29 -17 9 -39 20 -47 25 -8 5 -28
15 -45 22 -16 8 -32 16 -35 19 -3 3 -25 15 -50 28 l-45 22 -2312 0 -2313 0 0
-4000z m3976 2399 c434 -42 783 -187 988 -410 116 -125 191 -268 237 -452 29
-117 37 -369 16 -492 -71 -399 -331 -688 -742 -821 -55 -18 -101 -38 -103 -46
-2 -9 32 -20 115 -36 211 -41 433 -127 573 -222 201 -136 328 -298 406 -516
48 -133 64 -240 64 -419 0 -479 -183 -845 -544 -1086 -211 -141 -450 -227
-784 -281 -132 -21 -170 -22 -964 -25 l-828 -4 0 2410 0 2411 728 0 c445 0
771 -4 838 -11z"/>
<path d="M2640 5234 l0 -965 618 4 c673 4 724 8 968 67 342 82 552 228 670
465 77 156 107 337 93 555 -33 499 -386 765 -1099 830 -63 5 -370 10 -682 10
l-568 0 0 -966z"/>
<path d="M2640 2929 l0 -1130 688 4 c731 4 744 5 987 57 515 112 840 386 945
796 43 167 49 394 15 554 -98 458 -468 725 -1135 820 -161 22 -387 30 -932 30
l-568 0 0 -1131z"/>
</g>
</svg>
